<svg width="40" height="40" viewBox="0 0 40 40" fill="none" xmlns="http://www.w3.org/2000/svg">
<g clip-path="url(#clip0_663_1571)">
<path d="M32.0002 40H7.99976C3.58184 40 0 36.4182 0 32.0002V7.99976C0 3.58184 3.58184 0 7.99976 0H31.9991C36.417 0 39.9988 3.58184 39.9988 7.99976V31.9991C39.9988 36.417 36.417 39.9988 31.9991 39.9988L32.0002 40Z" fill="#FF6200"/>
<path d="M14.9493 39.645C14.8035 39.792 14.6565 39.9049 14.5107 40.0002H13.8745C13.577 39.1511 13.2712 38.4197 12.8338 37.6907C12.8338 37.6907 15.2797 36.7099 15.9276 36.7099C16.0923 37.0404 16.2545 37.526 16.5814 37.8494C16.2545 38.1763 15.2797 39.157 14.9493 39.645ZM16.2545 18.9418C16.2545 17.9623 16.5814 17.9623 16.4168 17.6413C16.2545 17.3108 14.9493 17.6413 14.6259 17.6413C13.8122 17.7988 12.3423 18.2904 12.3423 18.6138C12.18 19.1053 12.18 20.2471 12.18 20.4094C12.3423 20.8986 12.3423 21.3866 12.5081 21.8757C12.9902 21.3866 13.1572 21.2196 13.4841 21.0597C13.6452 20.8986 15.4373 19.5933 15.5996 19.4322C15.9265 19.1053 16.0911 19.2664 16.2534 18.943L16.2545 18.9418ZM11.5274 27.9082V28.7208C11.5274 29.0441 11.6885 30.8398 11.6885 31.3313C11.8554 31.8205 11.8554 32.305 12.0201 32.7977C12.1812 33.1246 12.3434 33.4479 12.3434 33.7772C12.3434 33.7772 12.6703 33.6114 12.835 33.288C13.3218 32.7988 13.4864 32.305 13.8133 31.6547C13.6475 30.5187 13.3218 29.5357 13.3218 29.2123C13.3218 27.9082 13.4864 27.5789 13.6475 26.7664C12.9925 27.0886 12.1812 27.5789 11.5285 27.9082H11.5274ZM20.8195 5.24592C20.9817 5.574 22.9373 6.71464 23.7569 7.20383C24.4084 7.69536 25.0598 7.85764 25.7113 8.18336C26.0346 7.69536 26.3627 7.20383 26.6861 6.06319C27.1776 6.39009 27.8291 6.39009 28.3183 6.55237C28.3183 7.205 28.3183 7.85881 28.4806 8.50909C28.4806 8.836 28.8039 8.67372 29.4589 8.34799C30.4385 8.01756 31.4133 7.85881 31.9048 7.69536C33.0478 7.04508 33.6993 5.73863 34.6741 5.73863C35.4914 5.73863 36.9589 6.22664 37.2846 6.55119C37.7738 6.71347 38.1019 6.87457 38.5864 6.87457C39.0709 6.87457 39.4413 6.53826 39.8046 6.22899C39.7482 5.9797 39.68 5.73511 39.6012 5.49522C38.2995 4.65797 36.8942 3.85481 35.4925 3.29155C34.5142 4.10646 33.8604 4.75792 33.37 4.75792C32.8797 4.75792 33.2077 3.78191 33.2077 3.13045C32.7186 3.13045 32.3987 3.13045 31.906 2.96582C31.5826 4.10528 31.4145 5.574 30.5996 5.90091C30.2738 6.06201 30.1104 6.06201 29.9481 6.06201V4.75792C29.9481 4.59564 30.5996 3.45383 30.4396 3.29155C30.4396 3.29155 28.9721 3.61845 28.644 3.78308C28.4817 3.94536 27.5045 4.43572 27.3411 4.43572C27.3411 4.43572 26.8531 4.26991 26.6873 4.26991C26.1993 3.94654 25.8747 3.94654 25.3844 3.61963C24.7329 5.57636 24.5706 6.06319 24.5706 5.73981C24.5706 5.73981 22.2894 4.26991 21.4721 3.29273C19.3554 3.61963 19.3554 3.94654 17.5598 4.59682C16.906 5.2471 15.93 6.06319 15.2821 7.04625C14.9516 7.69654 14.6283 8.01874 14.3013 8.67372L15.93 9.324C16.0946 9.1629 16.906 8.01756 17.073 7.69653C18.2148 7.04625 20.1704 5.90326 20.8218 5.2471L20.8195 5.24592ZM19.1932 33.4491C19.0262 33.1257 18.537 32.9576 18.2136 32.7988C17.8855 32.7988 17.5586 33.4491 17.5586 34.1029C17.5586 34.4298 17.7233 35.5658 17.8855 36.0573C17.8855 36.2184 18.2136 36.3842 18.537 36.5453C19.0262 36.8722 19.5154 37.0404 20.0045 37.3638C20.0045 37.3638 19.5154 35.895 19.3543 35.0825C19.1932 34.5933 19.5154 33.9395 19.1932 33.4491ZM12.9914 36.8722C12.9914 36.8722 13.4864 36.5453 13.4864 36.2184C14.3002 35.2424 15.2809 34.4298 15.4396 34.264C15.1163 33.4491 14.9505 33.2892 14.4624 32.7988C14.3002 32.9576 13.4864 33.4491 13.3218 33.7784C12.9914 33.9395 12.6703 34.1041 12.5092 34.264C12.5092 34.5933 12.6703 34.7532 12.835 35.0825C12.835 35.4058 12.9914 36.2184 12.9914 36.8722ZM16.0923 21.3866C14.4624 21.8757 13.3218 22.2027 12.9914 22.526C12.1812 23.0187 11.8554 23.3445 11.0405 23.8289C11.0405 24.4828 11.0942 24.9735 11.2016 25.3012L11.3674 27.2579C11.6896 26.7687 12.6703 25.7892 13.1595 25.1354C13.4864 24.8097 14.1355 23.9971 15.7677 23.1787C15.9288 22.526 16.0934 22.0404 16.0934 21.3866H16.0923ZM13.8122 10.3047C13.4853 10.7904 13.4853 11.2819 13.4853 11.7699C13.4853 12.5825 13.6464 13.2351 13.8122 14.2158C13.1584 14.7038 12.8338 15.0307 12.18 15.3518C12.3423 16.336 12.5081 18.1293 12.5081 18.1293C12.7252 17.8039 12.9416 17.5311 13.1572 17.3108C13.811 16.8228 14.1332 16.4947 14.9481 15.8456C15.1139 15.5187 15.2785 15.681 15.7654 15.3506C15.9265 15.1895 16.0911 15.0284 16.0911 14.8685C16.0911 14.538 15.9265 14.2146 15.7654 13.8877C15.5996 13.562 15.2785 12.7447 15.2785 12.5813C15.2785 11.2807 15.4373 10.9538 15.5996 9.81319C14.9481 9.64856 14.1332 9.64856 13.811 10.3024L13.8122 10.3047ZM30.2727 36.7099C29.6247 36.8722 28.3183 37.0404 28.3183 37.526C28.156 38.014 28.3183 38.5032 28.3183 38.8266C28.4806 39.157 28.4806 39.4804 28.4806 39.9696C28.4806 39.979 28.4806 39.9896 28.4806 39.999H29.7141C30.0057 39.5815 30.2879 39.2711 30.4385 38.8254C30.5972 38.3409 30.4385 37.5249 30.2727 36.7088V36.7099ZM24.0779 30.5199C24.2437 31.1702 24.4084 31.6558 24.7317 32.3061C24.8964 32.3061 25.0598 32.6366 25.2197 32.6366C25.5478 32.3061 25.8747 31.8217 26.3639 31.6558V32.3061C26.3639 32.7988 26.3639 33.1257 26.5274 33.6126C26.5274 34.1041 27.0165 34.1041 27.6633 34.1041C28.31 34.1041 28.4806 32.9588 28.4806 32.8C28.4806 32.8 28.6428 33.4503 29.6247 33.9395C29.6247 33.9395 30.7642 33.9395 30.7642 33.7784C30.9288 32.9588 31.0899 32.7988 30.9288 32.145C30.9288 32.145 31.9048 32.7988 32.3987 33.4491C32.7174 33.1257 33.0478 32.4731 33.0478 32.3061C33.37 31.6558 33.37 30.8409 33.37 30.1895C32.0671 29.3769 30.4396 29.2135 28.8051 29.2135C27.3411 29.2135 25.7124 29.3757 24.0791 30.5199H24.0779ZM26.8519 37.8506C26.6861 37.5272 26.3627 37.3649 26.0346 37.3649C25.7066 37.3649 24.8952 36.8734 24.8952 37.2003C24.0767 37.2003 24.7306 38.0152 24.7306 38.5044C24.7306 38.856 25.2033 39.491 25.6407 40.0013H27.1518C27.0906 39.7509 27.0165 39.511 27.0165 39.3193C26.8519 38.8278 27.0165 38.3433 26.8519 37.8506ZM35.4914 25.3012C36.7473 25.3012 38.2019 25.5916 39.9998 26.3231V27.4155C38.2089 26.6958 36.5662 26.5383 35.6548 26.276V27.5801C36.3075 27.7424 36.6332 28.0717 37.2835 28.2328C37.5269 28.3539 38.9545 29.1112 39.9998 29.6921V30.8292C38.0208 29.6168 36.6473 29.1464 34.9987 28.395C34.6729 28.7219 34.513 29.2135 34.0227 29.5368C33.858 29.6979 32.7162 28.7219 32.0648 28.395C31.5803 28.0717 30.5972 27.9094 29.9457 27.7424C29.787 27.7424 29.787 27.419 29.787 27.2567C29.6247 26.7676 29.4577 26.276 29.6247 26.1138C30.4385 25.788 30.7642 25.1342 30.7642 24.6486C30.7642 24.1629 31.2498 24.8097 31.7425 24.6486C32.0659 24.3205 32.2317 23.9959 32.0659 23.6678C32.0659 23.3445 31.9048 23.0187 31.5815 23.0187C29.9469 22.3638 28.156 22.3638 26.5274 23.0187C26.0346 23.1775 26.0346 23.8278 26.1981 24.3193C26.3639 24.9719 27.0165 24.6474 27.5045 24.3193C27.6633 24.3193 27.3399 24.8085 27.6633 25.3C27.9914 25.9527 28.6428 26.1126 28.6428 26.276C28.6428 26.6037 28.5887 26.8746 28.4806 27.0886C28.4806 27.419 28.4806 27.7424 28.1548 27.9082C27.1765 28.0705 26.3627 28.3939 25.382 28.7208C24.8952 28.883 24.4072 29.3746 23.9156 29.3746C23.5899 29.3746 23.263 28.7208 23.1031 28.5585C22.7738 28.5585 22.7738 28.3939 22.1235 28.5585C20.4973 29.2123 18.2136 30.3506 16.5826 31.3313C16.2557 31.0009 16.418 30.5187 16.2557 30.1883C18.049 29.0453 20.0045 28.0717 21.9648 27.2567C22.1235 27.0886 21.9648 26.6041 21.799 26.276C21.799 26.276 20.6572 26.1138 18.5382 26.7676C17.24 27.0898 15.7689 27.9094 15.6031 27.9094C15.6031 27.9094 15.4408 27.4202 15.4408 26.7676C16.4192 26.276 17.5598 25.788 18.5382 25.4611C19.6823 25.1342 20.8218 25.1342 21.966 24.9719C21.8002 24.9719 21.8002 24.6486 21.8002 24.4804C21.311 23.5067 20.4984 22.6918 19.6835 21.8757C19.3566 21.2196 19.0285 20.4094 19.0285 20.086C19.3566 19.7556 19.6835 20.2471 20.1703 20.2471C20.0057 19.7556 19.847 19.1053 19.847 18.4515C19.7372 18.0164 19.6823 17.5276 19.6823 16.9851C19.6823 16.0079 20.0057 15.5199 19.847 15.3518C19.6823 15.1907 19.0285 14.8696 18.8651 14.8696C18.5382 14.7038 18.3771 14.7038 18.2148 14.3804C17.7244 13.5644 17.24 12.9141 17.24 12.0968C17.24 11.2796 17.5598 10.6281 17.8867 9.81554C18.0502 9.1629 18.8651 8.836 19.3554 8.50909C19.847 8.18336 20.3291 8.34799 20.8218 8.34799C21.966 8.34799 22.9396 8.99828 23.7592 9.48628C24.4107 9.97546 24.7341 10.6281 24.8987 11.2819H26.3663C27.18 11.443 27.9937 11.6088 28.9744 12.0968C30.1127 11.1196 32.0683 10.955 33.0502 10.955C33.0502 9.1629 34.3531 8.18454 35.3267 8.18454C36.1464 8.01874 36.6367 7.85881 37.7762 8.34917C38.5887 8.83717 39.7294 10.4658 39.7294 10.6293C40.061 11.2831 39.894 12.098 39.894 13.0764C39.7294 13.7266 39.7294 14.2158 39.7294 14.3804C39.5718 15.0307 38.7534 15.5199 38.2654 15.6834C38.2654 16.8252 37.9361 17.4766 37.7762 18.4527C37.7762 18.9442 37.6139 19.4334 37.4505 19.919C37.9373 19.7567 38.1054 19.4334 38.5899 19.4334C38.2665 21.55 37.7774 21.2219 37.2882 22.2038C37.1224 22.8541 36.799 23.5079 36.3122 24.1606C36.1475 24.3217 35.9806 24.4828 35.4949 24.8108C35.168 24.9731 35.4949 25.1366 35.4949 25.3024L35.4914 25.3012ZM21.9636 12.9129C22.287 12.5825 23.263 11.9322 23.263 11.9322C23.4241 11.9322 23.4241 11.7699 23.4241 11.6088C23.1019 10.4658 22.7727 10.4658 22.1224 10.1401C21.6344 9.81436 21.3086 9.81436 20.9817 9.81436C20.3267 9.97546 19.192 10.3035 18.8627 11.2807C18.8627 11.4418 18.6981 12.0956 19.192 12.7436C19.5142 13.3974 20.168 13.8866 20.4949 14.2135C20.9806 14.2135 21.144 13.3974 21.9624 12.9106L21.9636 12.9129ZM25.382 26.1138C25.0598 25.9527 24.7306 25.9527 24.4072 25.9527C23.9156 25.9527 23.263 26.1138 23.263 26.1138C23.263 26.1138 23.4241 26.7676 23.5899 27.0898C24.0767 26.9287 24.2425 26.7676 24.5683 26.6053C24.5683 26.6053 25.2186 26.276 25.382 26.1138ZM26.6849 17.3108C26.6849 16.9839 26.3627 16.6547 25.8724 16.4947H23.7557C22.9361 16.4947 22.2858 16.4947 21.4686 16.6558C21.7966 17.312 22.6127 17.9635 22.9349 18.2904C23.2618 18.6138 23.5887 18.943 24.2414 18.943C24.894 18.7807 24.894 18.943 25.2174 18.7807C25.2174 19.1053 25.3808 19.5933 25.2174 19.919C25.2174 20.0872 25.3808 21.3877 24.7294 21.55C24.2414 21.7123 23.5887 22.0415 23.2618 22.5272C22.9349 23.0199 22.7715 23.8301 23.2618 24.1606C23.5887 24.3217 23.9145 23.8301 24.406 23.669C24.894 23.5079 24.894 23.1798 25.0586 22.693C25.3808 22.3638 26.0335 22.2038 26.1957 21.8769V21.3877C26.3616 19.919 26.3616 19.5945 26.525 18.6149C26.525 18.4527 26.6838 17.4766 26.6838 17.312L26.6849 17.3108ZM27.6621 13.3986C27.6621 13.0752 27.0154 13.2339 26.6849 13.3986C26.3627 13.3986 25.8724 13.7255 25.382 14.0488C24.8952 14.538 24.5683 14.7026 24.5683 15.1907H25.382C26.1969 15.1907 26.3627 15.5199 26.6849 15.0296C27.1765 14.3793 27.6621 14.0488 27.6621 13.3986ZM34.5118 11.9322C35.6537 12.2591 36.4686 12.9129 37.2823 13.8889C37.7715 13.8889 38.2607 13.5632 38.4229 13.0764C38.584 12.2603 38.7487 10.9562 38.2607 10.3059C37.9314 9.97664 37.7715 9.81671 36.9577 9.65209C36.3075 9.48746 35.6548 9.65209 35.1633 10.1413C34.8411 10.6293 34.3496 11.2831 34.5118 11.9334V11.9322ZM31.0876 14.0488C31.4121 14.0488 31.4121 14.7027 31.4121 15.0296C32.2306 15.0296 33.0455 15.1907 33.3677 14.8685C35.1633 14.0488 32.3964 13.3986 32.0648 13.3986C31.2487 13.2339 29.6247 12.7447 30.2715 13.3986C30.2715 13.7255 30.763 13.7255 31.0876 14.0488ZM34.5118 26.1138C34.0227 25.9527 33.5335 25.6246 32.5539 25.788C32.4489 25.8978 32.3964 26.1145 32.3964 26.4383C33.2054 26.4383 33.6981 26.9275 34.3496 27.0886C34.3496 27.0886 34.5118 26.276 34.5118 26.1126V26.1138ZM35.4902 23.1787C36.1417 23.1787 34.6729 22.526 34.0227 22.0404C33.858 22.0404 33.6981 21.8757 33.6981 21.8757C33.3677 21.5488 33.2054 20.8986 32.5539 20.7363C32.5539 20.7363 32.3964 20.7363 32.3964 20.5681C32.3964 20.086 32.2306 18.1293 32.2306 18.1293C32.5539 18.7796 33.2054 18.7796 33.5335 18.7796C34.1861 18.7796 34.6729 18.6138 34.9975 18.1293C34.9975 17.9635 35.1621 17.6413 35.322 17.6413C35.6537 17.4755 35.9759 17.3108 36.1417 16.9839C36.3063 16.9839 36.4674 16.6547 36.4674 16.6547C34.9975 16.4936 31.9025 16.4936 31.9025 16.4936C31.4109 16.6547 30.9265 17.1474 30.9265 17.3097C30.9265 17.3097 31.2487 19.1029 31.2487 19.264C31.2487 20.407 31.4121 20.407 31.4121 21.5477C31.9037 21.8746 32.0648 21.8746 32.3964 22.2015C32.5539 22.5249 32.715 22.8518 32.8855 23.1775C33.5346 23.5056 34.3496 23.8278 34.8411 24.3193C34.9987 24.3193 35.4902 23.5067 35.4902 23.1775V23.1787ZM36.632 37.3638C36.3063 37.0404 36.9577 35.895 36.1417 35.895C35.8136 35.7339 34.8399 35.4058 34.8399 35.4058C34.6718 35.895 34.6718 36.8722 34.8399 37.3638C34.8399 37.7224 35.2821 38.6138 35.6431 39.1229C36.077 38.9007 36.4874 38.6396 36.8707 38.3445C36.6885 37.8435 36.6308 37.459 36.6308 37.3626L36.632 37.3638ZM23.2618 36.3842C23.2618 36.3842 23.1007 35.5658 22.9349 35.2424C22.7715 34.9131 22.6127 34.5921 22.1212 34.2629C21.9624 34.2629 21.6332 33.9383 21.4686 34.1018C21.4686 34.1018 21.3075 35.4047 21.1428 35.5646C21.4686 36.0561 21.7955 36.383 21.9613 36.871C22.12 37.3626 22.2846 38.0129 22.6116 38.502C22.7703 37.8482 23.2607 37.5249 23.2607 36.383L23.2618 36.3842ZM33.6428 39.8308C33.5476 39.4157 33.4418 38.9571 33.3665 38.6631V36.0585C32.715 36.2196 32.5528 36.3854 32.3952 36.3854C31.9025 36.7111 31.5791 36.8734 31.5791 37.2003C31.5791 37.8506 31.7402 38.5044 31.7402 38.8278C31.7402 39.3193 31.7402 39.6462 31.9025 39.8097C32.1424 39.8873 32.3023 39.9284 32.4787 39.986C32.875 39.9625 33.2642 39.9108 33.6428 39.8308ZM38.9133 34.7532C38.6938 34.6458 38.4225 34.5921 38.0996 34.5921C37.9314 34.4298 37.608 34.4298 37.4446 34.4298C37.4446 34.4298 37.608 35.2424 37.9314 36.0573C38.0702 36.3266 38.3148 36.5959 38.4864 36.6805C38.7569 36.3066 38.9956 35.9068 39.2002 35.4882C39.0297 35.1718 38.9145 34.8908 38.9145 34.7532H38.9133Z" fill="white"/>
</g>
<defs>
<clipPath id="clip0_663_1571">
<rect width="40" height="40" fill="white"/>
</clipPath>
</defs>
</svg>
